<?xml version="1.0" standalone="no"?>
<!DOCTYPE svg PUBLIC "-//W3C//DTD SVG 20010904//EN"
 "http://www.w3.org/TR/2001/REC-SVG-20010904/DTD/svg10.dtd">
<svg version="1.0" xmlns="http://www.w3.org/2000/svg"
 width="1024.000000pt" height="1024.000000pt" viewBox="0 0 1024.000000 1024.000000"
 preserveAspectRatio="xMidYMid meet">
<metadata>
Created by potrace 1.11, written by Peter Selinger 2001-2013
</metadata>
<g transform="translate(0.000000,1024.000000) scale(0.100000,-0.100000)"
fill="#000000" stroke="none">
<path d="M4960 10221 c-92 -25 -140 -52 -214 -121 -81 -76 -138 -182 -168
-312 -19 -82 -21 -120 -19 -308 2 -222 28 -537 56 -671 34 -163 74 -198 255
-224 58 -8 110 -15 117 -15 6 0 17 -26 24 -57 6 -32 22 -82 35 -112 13 -29 24
-55 24 -57 0 -2 -92 -4 -205 -4 -164 0 -213 -3 -244 -16 -40 -16 -41 -15 -98
16 -82 45 -305 133 -393 156 -52 13 -109 19 -185 19 -116 0 -170 -13 -267 -61
-66 -33 -175 -138 -205 -197 -29 -58 -40 -142 -25 -187 10 -27 7 -42 -19 -108
-150 -380 -508 -795 -814 -942 -55 -27 -133 -56 -173 -66 l-72 -17 0 -266 c0
-847 124 -1830 340 -2701 274 -1105 690 -2030 1199 -2664 66 -83 80 -106 85
-146 23 -171 139 -366 249 -418 50 -23 166 -56 257 -72 55 -10 85 -25 195 -96
l131 -85 27 -113 c47 -196 99 -300 177 -353 43 -30 131 -32 176 -4 82 50 143
188 198 443 5 21 24 39 74 70 37 24 94 61 128 84 37 25 78 44 105 49 85 13
235 55 285 80 116 57 204 203 248 411 11 52 24 74 93 161 640 803 1130 2068
1372 3538 43 262 89 606 105 790 3 33 10 107 16 165 28 285 51 1042 34 1107
-4 16 -19 24 -57 34 -234 54 -474 230 -696 509 -141 176 -235 331 -295 484
-31 78 -34 93 -26 139 17 107 -19 196 -119 289 -183 171 -414 194 -731 73
-217 -83 -403 -113 -511 -82 -64 19 -122 69 -150 131 -31 68 -29 71 64 85 208
31 246 62 282 233 27 128 46 354 52 613 5 239 3 268 -16 354 -52 236 -192 393
-396 446 -79 20 -223 18 -305 -4z m312 -30 c134 -37 234 -119 300 -248 68
-132 73 -165 73 -478 -1 -367 -34 -675 -82 -757 -37 -63 -107 -91 -266 -104
l-77 -7 6 -36 c18 -102 88 -188 182 -224 97 -38 280 -15 492 64 224 82 233 84
385 84 135 0 143 -1 212 -31 155 -68 259 -177 276 -290 6 -37 -6 -106 -28
-158 -7 -16 -5 -18 9 -13 14 6 21 -2 34 -36 86 -220 244 -457 447 -666 179
-185 362 -306 525 -347 36 -9 71 -21 79 -28 12 -9 13 -66 8 -356 -21 -1117
-202 -2234 -529 -3260 -52 -163 -150 -430 -158 -430 -4 0 -14 18 -22 39 -16
39 -15 41 34 178 62 174 178 547 178 573 0 30 -15 24 -37 -12 -60 -102 -202
-237 -320 -306 -35 -20 -63 -39 -63 -43 0 -3 47 -104 105 -224 l104 -218 -22
-17 c-81 -62 -316 -185 -486 -255 -877 -358 -1866 -391 -2786 -90 -236 77
-607 253 -723 343 l-23 18 54 114 c30 63 78 164 107 225 31 65 48 111 41 113
-6 2 -46 26 -88 54 -94 62 -187 149 -260 246 -84 111 -86 97 -16 -128 48 -157
104 -326 146 -440 l35 -96 -19 -37 c-11 -20 -21 -37 -23 -37 -13 0 -168 453
-239 700 -279 962 -438 2036 -441 2985 l-1 369 50 12 c261 58 541 283 791 636
82 116 164 261 199 354 23 59 31 71 46 67 23 -6 23 -4 3 35 -8 18 -18 56 -21
84 -19 190 229 387 487 388 175 0 514 -127 679 -255 188 -144 301 -374 327
-666 6 -67 4 -80 -17 -120 l-24 -44 -6 110 c-22 393 -175 641 -484 786 -232
109 -418 153 -556 131 -81 -13 -192 -62 -250 -111 -116 -96 -139 -233 -57
-327 50 -56 101 -78 183 -78 90 0 146 26 236 111 l66 63 49 -53 c27 -28 83
-92 123 -140 86 -102 163 -161 239 -183 63 -19 111 -64 112 -106 0 -16 -4 -28
-8 -28 -20 0 -205 101 -278 151 -43 30 -111 84 -150 122 -39 37 -75 67 -79 67
-4 0 -26 -17 -50 -38 -57 -50 -117 -78 -196 -93 -56 -10 -77 -9 -141 5 -43 9
-96 30 -123 47 -26 16 -48 29 -50 27 -1 -2 -25 -48 -54 -104 -134 -264 -387
-568 -601 -723 -98 -71 -252 -152 -328 -171 l-52 -14 1 -250 c0 -138 4 -271 7
-295 l7 -44 105 -46 c58 -25 122 -56 142 -68 27 -16 39 -19 46 -10 5 7 47 82
93 167 45 85 91 168 100 184 l18 30 65 -135 c79 -163 127 -278 176 -427 21
-62 41 -114 46 -115 5 -1 10 169 12 385 l2 386 82 76 c221 205 513 360 847
447 117 30 332 71 340 64 2 -2 0 -20 -3 -39 -6 -33 -10 -35 -54 -41 -103 -15
-284 -59 -412 -102 -273 -90 -491 -218 -693 -406 l-39 -36 5 -793 c4 -852 4
-844 63 -1220 24 -154 24 -160 9 -285 -16 -143 -20 -129 61 -228 33 -41 51
-76 64 -123 17 -60 25 -74 87 -132 83 -80 158 -130 286 -193 l98 -48 -5 -42
c-3 -23 -10 -98 -16 -167 -6 -69 -13 -139 -16 -157 -4 -30 -3 -32 53 -53 325
-123 669 -180 1083 -180 307 0 539 26 790 90 133 34 318 94 334 110 7 7 6 51
-2 142 -7 73 -15 162 -18 198 l-5 65 88 40 c221 101 361 228 387 351 4 17 34
66 66 109 67 87 66 82 49 245 -11 97 -10 118 15 275 54 351 56 381 56 1221 l0
781 -57 54 c-255 241 -593 394 -1063 482 l-65 12 -3 37 c-3 38 -3 38 30 32
285 -47 488 -106 688 -201 187 -88 312 -171 468 -311 l82 -74 0 -389 c0 -214
4 -389 8 -389 4 0 25 51 46 113 47 140 110 295 175 429 73 152 70 150 106 80
17 -32 63 -119 104 -194 l74 -137 71 38 c39 21 104 51 144 66 57 22 74 34 78
52 4 14 7 146 8 295 l1 271 -67 23 c-360 121 -746 519 -964 992 -1 2 -30 -13
-65 -32 -143 -78 -316 -66 -430 30 -73 62 -61 64 -145 -15 -89 -83 -202 -160
-331 -225 -51 -25 -95 -46 -98 -46 -3 0 -5 12 -5 28 1 41 47 86 109 106 79 25
120 55 207 152 44 48 108 118 143 156 l64 68 70 -66 c38 -37 90 -75 113 -86
123 -54 246 -23 318 79 24 35 29 52 29 100 0 75 -25 125 -98 191 -73 67 -163
110 -263 124 -103 15 -242 -6 -372 -57 -116 -44 -252 -81 -359 -96 -248 -35
-415 64 -449 264 -7 41 -8 42 -51 45 -24 2 -48 -1 -53 -6 -14 -14 18 -137 54
-203 90 -170 272 -236 543 -198 84 11 214 48 370 103 239 84 399 64 524 -68
43 -47 51 -61 51 -94 0 -71 -86 -122 -168 -100 -44 12 -89 44 -159 115 -44 44
-59 53 -88 53 -65 0 -102 -31 -257 -215 -42 -49 -89 -99 -105 -111 -43 -32
-93 -55 -103 -49 -12 7 -13 45 -2 45 27 0 111 74 191 169 144 172 196 211 279
211 42 0 112 -42 131 -79 20 -37 110 -94 151 -95 45 -1 80 25 80 61 0 34 -65
97 -132 128 -112 51 -197 45 -424 -30 -356 -119 -553 -134 -720 -56 -128 60
-231 202 -257 354 l-11 65 -75 7 c-101 9 -209 31 -236 49 -46 30 -73 128 -100
359 -23 189 -36 567 -25 671 31 271 168 453 383 511 76 20 219 19 299 -4z
m-1172 -1866 c81 -21 267 -96 346 -140 79 -44 208 -167 245 -235 84 -153 109
-266 116 -535 6 -210 5 -211 -20 -260 l-25 -49 -4 259 c-5 238 -8 268 -31 357
-36 135 -80 219 -159 303 -81 86 -166 137 -343 204 -202 76 -290 85 -411 39
-56 -20 -139 -86 -149 -118 -9 -29 11 -57 49 -70 49 -16 97 7 176 84 78 76 95
86 153 86 62 0 120 -42 219 -158 121 -144 166 -188 209 -208 32 -14 38 -21 33
-38 -9 -30 -7 -30 -61 -3 -52 27 -86 61 -213 210 -97 115 -139 147 -193 147
-33 0 -47 -8 -111 -69 -40 -38 -88 -77 -106 -86 -69 -36 -154 -17 -191 41 -29
48 -18 86 42 145 111 108 252 139 429 94z m998 -22 c3 -10 -40 -13 -195 -13
-109 0 -213 -4 -231 -9 -54 -16 -88 9 -39 29 35 14 459 8 465 -7z m-1124 -32
c17 -6 16 -9 -11 -20 -17 -7 -54 -37 -82 -67 -85 -90 -133 -111 -179 -78 -29
20 -28 27 10 69 49 57 129 91 238 103 3 0 14 -3 24 -7z m2464 -41 c114 -53
145 -104 81 -131 -28 -11 -36 -10 -73 10 -22 12 -74 54 -115 93 l-74 71 57 -6
c32 -3 86 -19 124 -37z m-1246 -28 c107 -80 253 -120 396 -106 39 3 72 3 72 0
0 -4 -21 -16 -47 -27 -43 -18 -76 -21 -378 -26 -182 -3 -346 -3 -365 0 -27 5
-41 17 -62 50 -15 23 -53 68 -84 100 l-57 57 231 0 231 0 63 -48z m-947 -2
c120 -43 238 -111 254 -147 6 -12 21 -29 34 -38 l24 -15 -21 -55 c-12 -30 -26
-55 -32 -55 -25 0 -95 63 -189 171 -55 63 -113 127 -130 143 -22 21 -25 26
-10 21 11 -4 43 -15 70 -25z m1748 -57 c-38 -43 -91 -105 -118 -137 -50 -60
-118 -116 -140 -116 -6 0 -21 23 -33 51 l-21 51 34 33 c26 24 35 41 35 64 0
38 -28 26 309 130 2 1 -28 -34 -66 -76z m-253 -34 c0 -20 -22 -54 -52 -79
l-29 -25 30 -92 c17 -50 31 -105 31 -122 0 -45 -24 -97 -55 -117 l-26 -17 6
-111 c6 -112 16 -256 35 -510 6 -77 19 -175 30 -217 24 -92 24 -89 5 -89 -46
0 -65 135 -105 764 -11 163 -8 192 21 201 57 19 61 124 9 249 -17 39 -30 74
-30 78 0 5 16 16 35 25 19 9 41 29 47 45 12 27 48 40 48 17z m-145 -144 c14
-30 33 -83 42 -118 14 -55 15 -66 2 -92 l-14 -30 -227 -3 -226 -2 -23 50 c-12
27 -26 50 -30 50 -4 0 -18 -22 -30 -50 l-23 -50 -53 0 c-49 0 -53 2 -59 28
-14 60 -43 150 -67 204 l-26 58 337 3 c185 1 345 3 354 5 11 1 25 -15 43 -53z
m-1014 -64 c-29 -86 -28 -155 4 -186 13 -14 29 -25 35 -25 13 0 13 -155 0
-325 -6 -71 -17 -211 -25 -310 -16 -194 -38 -313 -61 -322 -26 -10 -26 4 -6
94 12 48 26 158 32 243 6 85 15 207 20 270 5 63 10 160 10 215 0 98 0 99 -32
132 -45 47 -49 114 -13 223 24 73 29 80 42 67 14 -13 13 -22 -6 -76z m116
-151 c5 -29 5 -30 -35 -30 -70 0 -87 47 -55 151 l16 54 34 -73 c18 -39 36 -86
40 -102z m-423 -39 c83 -56 262 -151 285 -151 11 0 13 -19 7 -107 -3 -60 -9
-132 -12 -160 -6 -51 -7 -53 -43 -58 -505 -81 -886 -252 -1178 -529 l-73 -69
0 -351 -1 -351 -53 140 c-75 200 -192 452 -226 488 -4 5 -56 -81 -115 -190
-59 -109 -108 -199 -109 -200 -1 -2 -31 13 -67 31 -35 19 -89 44 -119 56 -30
12 -61 28 -67 37 -19 24 -19 542 0 547 68 22 167 64 234 102 251 142 562 484
722 795 24 46 45 86 47 88 3 3 23 -5 47 -17 53 -26 150 -52 197 -52 82 0 200
44 268 100 l35 28 72 -62 c39 -35 106 -87 149 -115z m2033 95 c128 -65 231
-59 409 20 7 3 32 -33 59 -83 178 -329 453 -634 713 -790 57 -33 181 -88 245
-107 16 -5 17 -24 16 -223 -1 -120 -4 -245 -8 -277 l-6 -60 -75 -30 c-42 -17
-99 -43 -127 -58 l-51 -27 -108 199 c-60 110 -111 200 -114 200 -4 0 -43 -75
-87 -167 -75 -155 -98 -211 -167 -393 l-25 -65 -1 347 0 347 -80 72 c-299 271
-668 441 -1117 514 -47 8 -88 17 -91 20 -8 8 -20 148 -21 240 l0 70 95 45
c118 55 246 138 344 223 l74 65 37 -29 c20 -15 59 -40 86 -53z m-926 -561
c142 -289 263 -525 267 -525 5 0 148 -20 318 -45 170 -25 425 -62 567 -82 141
-21 257 -40 257 -44 0 -4 -183 -186 -407 -405 -225 -218 -411 -402 -415 -408
-3 -6 16 -141 44 -301 119 -692 145 -850 142 -854 -1 -2 -108 52 -236 119
-128 68 -280 147 -338 178 -58 30 -132 69 -165 87 -33 18 -113 60 -178 94
l-117 62 -148 -77 c-81 -42 -174 -91 -207 -109 -33 -18 -112 -59 -175 -92 -63
-34 -202 -106 -309 -162 -106 -56 -195 -100 -197 -98 -4 4 17 130 116 703 33
192 63 372 66 400 l6 50 -413 403 c-228 222 -414 406 -413 410 0 3 52 13 115
22 63 10 290 43 504 74 215 31 422 61 460 67 39 5 71 10 72 11 3 4 293 590
403 815 63 127 116 232 118 232 2 0 120 -236 263 -525z m-659 395 c5 -19 11
-156 15 -303 l6 -268 -73 -149 c-41 -82 -75 -148 -76 -147 -2 2 3 31 11 65 8
33 19 130 25 214 6 84 15 200 20 258 5 58 9 165 10 238 l0 133 27 -3 c22 -2
29 -10 35 -38z m318 33 c-1 -5 -14 -33 -30 -63 -24 -45 -29 -50 -30 -30 0 14
-3 42 -6 63 l-7 37 37 0 c20 0 36 -3 36 -7z m538 -141 c2 -81 10 -223 18 -317
8 -93 14 -191 14 -217 0 -27 7 -83 16 -124 8 -42 13 -78 11 -81 -3 -2 -26 39
-52 92 -25 53 -124 253 -220 445 l-173 350 191 0 192 0 3 -148z m-1042 -514
c-8 -112 -41 -272 -59 -286 -7 -5 -127 -25 -267 -45 -513 -73 -804 -117 -809
-123 -3 -3 30 -40 74 -82 44 -42 218 -210 386 -375 l307 -298 -12 -40 c-7 -22
-15 -41 -18 -42 -3 -1 -93 83 -199 188 -161 157 -194 194 -195 219 -2 38 -45
76 -85 76 -68 0 -106 -93 -57 -142 25 -25 25 -19 2 -213 -58 -508 -107 -938
-125 -1100 -11 -104 -23 -201 -26 -215 -7 -32 -25 69 -55 305 -20 157 -22 228
-25 952 l-5 782 29 27 c196 183 407 310 663 399 145 50 386 109 469 114 11 1
13 -17 7 -101z m1364 65 c350 -76 668 -230 893 -433 l67 -61 0 -765 c0 -609
-3 -795 -15 -912 -18 -176 -45 -362 -55 -381 -4 -7 -10 18 -13 55 -3 38 -15
148 -27 244 -19 164 -28 240 -65 565 -8 72 -28 247 -44 389 l-30 259 24 29
c14 16 25 41 25 55 0 33 -51 83 -85 83 -34 0 -85 -50 -85 -83 0 -18 -49 -72
-197 -217 l-196 -194 -13 44 -14 45 188 185 c103 102 276 272 385 379 108 107
196 196 194 198 -3 2 -417 64 -932 138 -60 8 -120 18 -132 20 -18 4 -25 20
-43 97 -12 51 -24 139 -27 196 l-6 103 44 -7 c24 -3 96 -17 159 -31z m-2202
-909 c32 -22 30 -78 -3 -100 -61 -40 -128 43 -75 96 24 24 48 25 78 4z m2921
-10 c12 -15 21 -33 21 -41 0 -19 -45 -63 -65 -63 -20 0 -65 44 -65 63 0 25 41
67 65 67 14 0 32 -11 44 -26z m-2683 -276 c112 -110 194 -199 194 -210 0 -10
-3 -18 -6 -18 -4 0 -98 88 -210 196 -164 157 -202 199 -193 210 6 8 13 14 16
14 2 0 92 -86 199 -192z m2582 180 c8 -8 -37 -58 -190 -207 -110 -108 -204
-197 -208 -199 -4 -2 -10 4 -14 13 -4 11 52 72 192 210 108 107 199 194 203
195 3 0 10 -5 17 -12z m-2854 -220 c-12 -106 -30 -256 -39 -333 -9 -77 -25
-219 -36 -315 -40 -349 -48 -418 -68 -595 -12 -99 -27 -234 -35 -300 -14 -120
-14 -120 9 -156 12 -19 49 -63 82 -97 67 -71 91 -77 161 -39 67 35 192 137
234 190 44 57 46 77 23 252 -20 148 -21 142 25 165 l40 20 0 -24 c0 -16 -7
-27 -20 -31 -24 -7 -24 -10 -5 -140 22 -151 20 -184 -14 -236 -40 -59 -100
-116 -194 -183 -86 -61 -140 -82 -182 -72 -35 9 -134 103 -179 170 -34 50 -34
52 -26 121 5 39 36 309 70 600 33 292 76 663 95 826 19 163 35 310 35 326 0
34 6 43 30 43 15 0 14 -16 -6 -192z m2930 150 c7 -49 65 -549 96 -828 12 -102
30 -261 41 -355 29 -254 48 -418 61 -537 l12 -107 -28 -39 c-76 -110 -158
-182 -208 -182 -74 0 -288 159 -362 270 -20 31 -21 110 -1 245 8 55 15 103 15
107 0 4 -9 9 -19 13 -16 5 -36 43 -27 52 1 2 22 -6 45 -18 40 -19 43 -23 37
-52 -3 -18 -12 -90 -21 -162 l-15 -129 25 -42 c31 -53 117 -131 214 -195 113
-75 142 -68 244 60 l59 75 -6 76 c-6 68 -53 479 -91 800 -8 69 -35 305 -60
525 -25 220 -47 415 -50 433 -5 27 -3 32 14 32 16 0 21 -9 25 -42z m-2666
-201 l184 -183 -12 -77 c-7 -51 -8 -87 -1 -111 6 -25 5 -76 -4 -163 -7 -71
-16 -204 -20 -298 -3 -93 -8 -197 -11 -231 -5 -58 -7 -62 -40 -77 -19 -10 -38
-17 -43 -17 -8 0 -21 59 -56 260 -9 52 -25 140 -35 195 -10 55 -26 143 -35
195 -9 52 -23 129 -31 170 -7 41 -21 116 -30 165 -8 50 -24 135 -34 190 -29
156 -30 165 -22 165 4 -1 90 -83 190 -183z m-174 -152 c15 -82 33 -184 41
-225 8 -41 30 -167 50 -280 20 -113 42 -239 50 -280 45 -243 67 -385 81 -518
6 -56 4 -66 -19 -100 -48 -74 -241 -222 -289 -222 -21 0 -146 135 -154 167 -4
13 3 106 15 206 25 213 46 393 66 567 8 69 24 206 35 305 29 250 46 400 62
535 l12 115 12 -60 c6 -33 23 -127 38 -210z m438 33 c-35 -136 -44 -215 -31
-255 6 -19 8 -49 5 -66 -3 -18 -10 -90 -16 -162 -10 -127 -47 -375 -57 -385
-6 -6 2 130 20 355 6 83 11 197 9 254 -3 109 5 166 39 294 19 70 23 77 37 64
13 -14 12 -25 -6 -99z m1894 -4 c22 -83 27 -123 29 -254 1 -85 7 -222 13 -305
15 -193 21 -317 17 -313 -2 2 -15 71 -28 153 -30 183 -49 412 -41 482 7 59 -8
169 -35 260 -13 42 -15 66 -9 78 16 27 26 7 54 -101z m-1842 14 c-11 -76 -44
-252 -49 -257 -18 -17 3 150 30 242 19 68 28 74 19 15z m1774 -38 c24 -88 39
-210 25 -210 -5 0 -19 60 -31 133 -31 187 -29 207 6 77z m-814 -601 c76 -39
154 -80 321 -169 70 -37 220 -116 435 -229 l115 -60 6 -68 c4 -37 10 -179 14
-314 l7 -245 -118 -17 c-66 -9 -168 -19 -229 -22 -60 -3 -143 -8 -183 -11
l-74 -5 4 136 c3 117 5 138 21 146 15 9 17 30 17 205 0 164 -2 196 -15 200
-11 5 -15 24 -15 80 l0 74 -140 0 -140 0 0 -74 c0 -41 -4 -78 -10 -81 -6 -4
-10 -82 -10 -200 0 -174 2 -195 18 -204 15 -8 17 -29 20 -145 l4 -136 -131 0
-131 0 0 558 0 559 58 31 c31 17 61 31 66 31 5 1 45 -18 90 -40z m-244 -1050
l0 -1010 -22 3 -23 3 -3 994 c-2 937 -1 994 15 1007 10 7 21 14 26 14 4 0 7
-455 7 -1011z m-150 -34 l0 -965 -25 0 -25 0 0 955 c0 898 1 955 18 964 9 6
20 11 25 11 4 0 7 -434 7 -965z m-70 435 l0 -490 -82 5 c-46 2 -128 7 -183 10
-55 3 -153 13 -219 22 l-119 17 7 305 c5 213 11 309 19 317 12 12 60 38 302
164 77 41 167 88 200 106 33 18 63 33 68 34 4 0 7 -221 7 -490z m750 256 c0
-41 5 -78 10 -81 16 -10 13 -362 -2 -367 -10 -4 -14 -137 -18 -604 l-5 -599
-22 -3 -23 -3 0 580 c0 376 4 582 10 586 6 3 10 24 10 46 0 21 5 39 10 39 6 0
10 53 10 139 0 83 -4 142 -10 146 -5 3 -10 40 -10 81 l0 75 -77 -3 -78 -3 -3
-70 c-2 -38 -7 -74 -13 -79 -5 -6 -9 -70 -9 -143 0 -110 3 -135 15 -139 10 -4
15 -20 15 -44 0 -22 5 -42 10 -45 6 -4 10 -212 10 -591 l0 -584 -25 0 -24 0
-3 605 c-3 508 -5 607 -17 614 -12 8 -13 50 -8 255 3 135 9 251 12 256 4 6 56
10 121 10 l114 0 0 -74z m-70 -20 c0 -16 -7 -26 -21 -29 -23 -6 -17 -27 7 -27
8 0 14 -9 14 -20 0 -17 -7 -20 -50 -20 l-50 0 0 53 c0 30 3 57 7 60 3 4 26 7
50 7 39 0 43 -2 43 -24z m-1361 -135 c1 -48 -5 -36 -13 24 -4 34 -3 43 3 30 5
-11 10 -35 10 -54z m50 -252 c-6 -162 -13 -330 -16 -374 -4 -76 11 -267 42
-530 8 -66 17 -141 20 -167 6 -48 1 -55 -23 -40 -18 12 -73 515 -74 677 -1 72
4 265 11 430 10 265 13 302 29 313 14 11 18 11 20 -1 2 -7 -2 -146 -9 -308z
m2045 283 c3 -15 8 -142 11 -282 3 -140 11 -280 17 -311 12 -66 3 -197 -39
-561 -20 -181 -30 -239 -41 -243 -8 -3 -17 -3 -19 -1 -3 3 7 110 21 238 49
444 55 533 37 580 -5 13 -12 157 -16 321 -7 267 -6 297 8 291 9 -3 18 -18 21
-32z m37 -10 c-4 -54 -11 -53 -11 3 0 27 3 45 7 41 4 -4 6 -24 4 -44z m-751
-132 l0 -110 -65 0 -65 0 0 110 0 110 65 0 65 0 0 -110z m-22 -172 c-3 -31 -5
-33 -43 -33 -38 0 -40 2 -43 33 -3 32 -3 32 43 32 46 0 46 0 43 -32z m-1379
-262 c-15 -80 -4 -252 35 -596 13 -113 23 -206 22 -207 -1 -2 -21 5 -44 14
-50 19 -49 13 -27 238 8 83 15 157 15 166 0 10 -30 29 -86 54 -182 81 -365
230 -379 308 l-7 38 36 -22 c28 -16 48 -20 79 -17 64 8 178 81 276 178 l86 85
3 -85 c2 -47 -2 -116 -9 -154z m2323 78 c77 -60 163 -104 202 -104 17 0 48 9
69 20 41 22 41 21 27 -32 -20 -71 -182 -198 -368 -288 -107 -52 -99 -26 -77
-255 20 -207 23 -191 -30 -208 -25 -9 -45 -15 -45 -14 0 1 11 101 25 222 39
354 49 517 36 569 -6 25 -11 93 -11 151 l0 106 57 -61 c31 -34 83 -82 115
-106z m-2141 -119 c42 -8 124 -17 183 -21 96 -6 106 -9 106 -26 0 -121 35
-610 56 -780 l6 -48 -32 0 c-37 0 -320 68 -336 81 -6 5 -16 59 -23 121 -7 62
-17 147 -22 188 -14 111 -39 398 -39 453 0 54 -4 53 101 32z m1895 1 c14 -37
-64 -779 -84 -797 -11 -10 -255 -69 -313 -76 l-51 -6 6 74 c4 41 11 115 17
164 13 126 29 402 29 516 l0 96 113 7 c61 4 141 13 177 21 88 17 100 17 106 1z
m-1376 -472 l0 -436 -57 7 c-32 4 -63 11 -69 16 -6 5 -14 49 -18 97 -4 48 -13
152 -21 232 -7 80 -17 229 -20 333 l-7 187 96 0 96 0 0 -436z m940 424 c7
-169 -18 -589 -45 -795 -7 -45 -10 -48 -87 -59 l-48 -6 0 436 0 436 90 0 c65
0 90 -3 90 -12z m-580 -438 l0 -440 -55 0 -55 0 0 440 0 440 55 0 55 0 0 -440z
m150 0 l0 -440 -55 0 -55 0 0 440 0 440 55 0 55 0 0 -440z m-2043 -91 c40 -24
73 -47 73 -50 0 -4 -32 -73 -72 -154 -55 -113 -73 -143 -80 -131 -10 18 -172
505 -182 547 -5 21 15 6 92 -70 55 -55 129 -117 169 -142z m4077 189 c-23 -77
-130 -402 -158 -478 l-24 -65 -71 148 c-39 82 -71 152 -71 156 0 4 35 29 78
56 46 29 114 86 167 141 50 51 91 93 92 93 1 1 -5 -23 -13 -51z m-4117 -747
c11 -9 49 -83 84 -166 173 -412 413 -837 657 -1163 84 -113 84 -114 76 -155
l-9 -42 -68 85 c-203 255 -440 643 -599 980 -55 115 -201 451 -213 489 -7 23
-7 23 22 6 16 -9 39 -25 50 -34z m3980 37 c-196 -485 -423 -921 -650 -1250
-119 -173 -226 -310 -238 -303 -5 4 -9 24 -9 45 0 30 9 50 40 89 263 333 514
780 748 1334 9 22 33 51 56 67 45 32 61 37 53 18z m-3762 -154 c192 -98 426
-186 685 -259 48 -14 59 -22 89 -66 l34 -50 -6 -97 c-4 -53 -16 -135 -27 -182
-24 -103 -150 -577 -159 -604 -6 -15 -22 2 -88 90 -165 222 -321 479 -465 767
-107 213 -226 482 -210 475 4 -2 70 -35 147 -74z m3582 -20 c-144 -336 -310
-652 -474 -904 -109 -166 -245 -350 -255 -344 -4 3 -8 13 -8 22 0 9 -31 132
-69 272 -82 300 -111 435 -114 533 -2 68 0 75 32 119 29 41 42 50 90 63 244
66 588 201 756 294 39 22 71 36 73 32 1 -4 -13 -43 -31 -87z m-2780 -279 c9
-25 -4 -29 -17 -6 -7 15 -7 21 0 21 6 0 13 -7 17 -15z m1882 -2 c-7 -10 -15
-20 -16 -22 -2 -2 -3 5 -3 17 0 14 6 22 16 22 14 0 15 -3 3 -17z m-1835 1 c13
-5 16 -23 16 -98 0 -133 -27 -276 -100 -531 -111 -386 -125 -499 -81 -645 47
-152 114 -251 200 -294 67 -34 290 -84 466 -104 45 -5 61 -11 63 -25 5 -22
-18 -22 -180 3 -139 21 -260 50 -342 80 -122 46 -219 197 -261 409 -24 119
-13 185 104 606 65 234 91 376 91 499 0 58 2 106 4 106 2 0 11 -3 20 -6z
m1791 -57 c-9 -86 15 -245 70 -453 25 -93 64 -239 86 -324 53 -200 60 -301 30
-420 -32 -127 -80 -221 -149 -290 -51 -51 -68 -61 -141 -84 -88 -28 -301 -70
-413 -81 -63 -7 -68 -6 -68 12 0 18 9 21 77 27 95 9 295 48 384 75 36 12 84
34 106 50 100 73 185 276 185 442 -1 73 -30 211 -82 389 -83 284 -120 470
-120 602 0 107 3 118 27 118 12 0 13 -12 8 -63z m-1540 9 l140 -22 3 -119 c5
-203 -34 -519 -89 -720 -23 -85 -24 -97 -2 -93 19 3 30 41 67 218 40 193 48
266 53 493 l5 217 39 0 39 0 0 -427 c0 -419 19 -896 40 -1056 6 -44 9 -82 5
-85 -8 -8 -219 26 -345 55 -132 31 -177 50 -223 99 -76 80 -142 260 -141 384
1 63 38 229 90 405 80 273 130 543 118 639 l-7 49 34 -7 c19 -4 97 -18 174
-30z m1467 -29 c-7 -111 32 -309 138 -692 53 -193 70 -274 70 -340 0 -132 -75
-323 -154 -391 -48 -43 -96 -62 -226 -92 -111 -26 -319 -56 -327 -48 -3 3 -1
50 6 103 21 169 41 703 41 1091 l0 372 38 0 37 0 3 -193 c2 -120 10 -245 22
-332 25 -176 79 -405 96 -405 23 0 24 16 4 86 -54 197 -90 474 -90 699 l0 151
123 18 c67 9 138 21 157 26 67 16 66 16 62 -53z m-1139 -505 c3 -274 11 -569
17 -657 47 -721 139 -1055 292 -1055 125 0 211 253 262 770 25 244 36 500 43
988 l6 452 25 0 25 0 -6 -463 c-4 -254 -12 -548 -17 -652 -33 -594 -108 -964
-224 -1092 -41 -45 -45 -47 -108 -51 -64 -4 -66 -3 -108 34 -169 153 -244 653
-257 1715 l-6 517 25 -5 25 -5 6 -496z m147 271 c1 -517 28 -1097 65 -1373 27
-206 74 -410 94 -410 10 0 45 123 65 229 54 287 77 625 83 1249 l5 522 24 0
24 0 0 -421 c0 -690 -43 -1232 -121 -1509 -21 -76 -65 -170 -80 -170 -27 0
-78 135 -109 290 -56 284 -86 708 -96 1358 l-7 452 27 0 26 0 0 -217z m140
-258 c0 -468 0 -475 20 -475 20 0 20 7 20 475 l0 475 56 0 56 0 -5 -482 c-5
-416 -24 -857 -42 -974 -3 -19 -7 -50 -11 -69 l-5 -36 -72 3 -72 3 -7 50 c-25
166 -41 521 -45 993 l-5 512 56 0 56 0 0 -475z m88 -1142 c-3 -15 -16 -19 -71
-21 -62 -3 -67 -1 -67 18 0 18 6 20 71 20 62 0 70 -2 67 -17z m-397 -34 c13
-7 34 -87 25 -96 -2 -3 -157 95 -171 108 -12 12 122 1 146 -12z m809 17 c0 -2
-28 -21 -62 -43 -35 -22 -76 -48 -92 -58 l-29 -19 7 44 c4 25 11 49 17 55 13
13 159 32 159 21z m-425 -68 c-10 -68 -14 -76 -41 -82 -37 -10 -60 8 -68 51
-12 74 -12 73 55 73 l61 0 -7 -42z m-29 -153 c-14 -48 -41 -58 -50 -18 -4 15
-9 35 -11 43 -4 12 4 15 34 15 l38 0 -11 -40z m-16 -74 c0 -6 -4 -13 -10 -16
-5 -3 -10 1 -10 9 0 9 5 16 10 16 6 0 10 -4 10 -9z"/>
<path d="M5022 10139 c-134 -22 -239 -106 -302 -242 -65 -140 -75 -206 -75
-487 1 -339 36 -614 88 -692 17 -24 38 -37 82 -52 52 -17 90 -19 290 -20 377
-1 412 16 456 228 32 155 42 323 35 566 -7 237 -16 301 -62 423 -82 215 -270
316 -512 276z m187 -29 c118 -22 221 -101 276 -210 53 -106 72 -213 80 -462
l7 -228 -180 0 -179 0 -7 38 c-18 115 -111 150 -155 59 -12 -24 -21 -55 -21
-70 l0 -27 -174 0 -175 0 -7 57 c-4 32 -4 136 -1 233 8 254 48 384 149 496 93
101 235 143 387 114z m-49 -822 c43 -94 6 -255 -53 -232 -28 10 -50 87 -45
157 7 115 61 156 98 75z m-130 -135 c1 -37 35 -112 55 -119 13 -5 15 -33 15
-185 l0 -179 -47 0 c-79 0 -226 21 -260 37 -21 10 -37 28 -48 55 -18 46 -50
225 -60 341 l-7 77 176 0 176 0 0 -27z m527 -75 c-3 -57 -15 -147 -26 -201
-23 -111 -51 -159 -103 -176 -41 -13 -186 -31 -250 -31 l-48 0 0 171 0 171 28
28 c26 26 52 87 52 124 0 14 20 16 177 16 l176 0 -6 -102z"/>
<path d="M2946 6398 c-13 -24 -54 -99 -91 -168 -37 -69 -71 -129 -76 -134 -4
-5 -29 4 -56 22 -54 35 -152 82 -170 82 -7 0 2 -35 26 -92 74 -180 121 -347
147 -522 18 -121 16 -359 -6 -691 -16 -240 0 -523 41 -725 58 -283 163 -497
323 -655 67 -66 217 -175 242 -175 6 0 32 45 58 100 38 81 52 101 73 106 35 9
200 -2 298 -21 106 -19 169 -19 189 1 9 8 16 19 16 23 0 3 -30 22 -67 40 -284
139 -476 361 -553 642 -54 199 -55 205 -55 794 -1 614 0 605 -80 870 -53 173
-208 545 -227 545 -4 0 -18 -19 -32 -42z m69 -502 c40 -17 55 -42 55 -94 0
-45 -32 -87 -44 -57 -3 9 1 27 9 39 13 19 13 28 4 50 -14 30 -45 41 -96 33
-45 -8 -73 -33 -73 -65 0 -28 26 -62 47 -62 7 0 13 -9 13 -19 0 -18 -3 -19
-30 -9 -32 11 -60 52 -60 88 0 18 25 80 33 80 1 0 20 7 42 15 51 18 58 18 100
1z m40 -241 c37 -18 55 -51 55 -101 0 -46 -14 -70 -50 -89 -33 -17 -102 -20
-131 -5 -45 25 -64 115 -33 159 19 26 67 50 102 51 13 0 39 -7 57 -15z m65
-294 c0 -27 -4 -29 -80 -51 -45 -13 -77 -26 -73 -30 4 -4 41 -15 81 -26 71
-18 72 -18 72 -51 l0 -34 -112 3 c-93 2 -113 6 -113 18 0 12 19 16 95 20 100
5 99 7 -19 37 -66 16 -94 34 -78 49 3 3 41 14 84 25 116 29 117 33 14 39 -63
3 -96 9 -99 18 -3 9 24 12 112 12 l116 0 0 -29z m0 -336 c0 -69 -3 -85 -15
-85 -12 0 -15 14 -15 65 0 65 0 65 -29 65 -31 0 -41 -18 -41 -77 0 -22 -5 -33
-14 -33 -12 0 -14 13 -13 58 l2 57 -37 3 -38 3 0 -65 c0 -52 -3 -66 -15 -66
-12 0 -15 16 -15 80 l0 80 115 0 115 0 0 -85z m-55 -242 l47 -6 -4 -64 c-5
-73 -21 -96 -68 -96 -43 0 -62 23 -68 82 l-5 51 -43 0 c-42 0 -57 14 -37 33 8
9 116 9 178 0z m-55 -224 c88 -27 100 -33 100 -53 0 -23 -4 -26 -147 -92 -65
-30 -73 -31 -73 -15 0 10 11 23 25 29 22 10 25 18 25 65 0 49 -2 53 -30 64
-17 6 -30 19 -30 28 0 11 5 15 15 11 9 -3 60 -20 115 -37z m129 -270 c12 -64
11 -72 -5 -90 -17 -19 -59 -25 -80 -11 -6 4 -16 16 -22 27 -6 11 -12 14 -12 8
0 -7 -17 -31 -37 -54 -32 -36 -38 -39 -44 -22 -4 13 5 30 32 60 35 38 49 79
34 95 -3 3 -24 1 -46 -5 -32 -8 -43 -7 -49 4 -5 7 -7 15 -5 17 7 7 159 40 191
41 31 1 31 0 43 -70z m61 -205 c23 -55 29 -79 21 -87 -8 -8 -15 -2 -23 21 -7
18 -17 32 -23 32 -6 0 -48 -16 -93 -35 -74 -31 -83 -33 -89 -18 -4 9 -2 18 3
20 114 45 168 72 165 84 -24 87 0 77 39 -17z m35 -175 c-14 -27 -25 -50 -25
-52 0 -2 25 -2 56 1 41 3 59 1 65 -9 16 -26 9 -29 -69 -29 -66 0 -83 -4 -114
-25 -30 -21 -38 -22 -48 -10 -9 11 -3 19 30 40 34 21 49 41 73 96 27 61 33 68
44 53 10 -14 8 -25 -12 -65z"/>
<path d="M2936 5609 c-33 -26 -36 -77 -5 -105 26 -24 87 -24 122 -1 36 23 39
88 5 111 -32 23 -90 20 -122 -5z"/>
<path d="M3002 4709 c2 -27 9 -46 21 -53 28 -18 52 4 55 53 l3 41 -41 0 -41 0
3 -41z"/>
<path d="M2970 4500 c0 -22 2 -40 4 -40 14 0 98 41 93 46 -3 3 -26 12 -51 19
l-46 14 0 -39z"/>
<path d="M3043 4312 c-19 -12 4 -90 29 -98 33 -10 50 16 42 64 -6 37 -10 42
-33 42 -14 0 -31 -4 -38 -8z"/>
<path d="M7211 6350 c-108 -233 -180 -433 -228 -635 l-28 -120 0 -540 c0 -578
-4 -629 -55 -815 -81 -288 -271 -511 -556 -651 -68 -33 -78 -51 -42 -70 24
-13 94 -8 248 16 101 16 227 20 247 7 6 -4 33 -51 58 -105 26 -53 50 -97 54
-97 4 0 34 16 66 36 251 151 418 408 496 765 50 230 62 579 34 979 -27 378 9
623 141 957 25 63 43 118 40 121 -8 7 -139 -55 -187 -90 l-37 -26 -97 179
c-53 98 -100 179 -104 179 -5 0 -27 -41 -50 -90z m77 -359 c31 -37 55 -54 93
-66 36 -12 48 -20 40 -28 -7 -7 -22 -7 -50 3 -37 12 -61 11 -159 -6 -27 -5
-31 -4 -26 10 4 10 24 18 55 22 27 4 51 10 54 14 2 4 -11 22 -30 40 -33 32
-45 60 -27 60 5 0 28 -22 50 -49z m-98 -186 c0 -28 4 -35 20 -35 46 0 170 -34
170 -46 0 -15 -14 -13 -128 12 -35 8 -65 14 -67 14 -2 0 -6 -14 -10 -31 -7
-29 -32 -37 -28 -8 14 106 43 170 43 94z m52 -201 c12 -26 19 -29 34 -15 5 6
26 17 47 26 60 25 48 -8 -15 -42 -36 -19 -54 -35 -56 -50 -3 -20 2 -22 44 -25
29 -2 49 -8 52 -17 4 -11 -10 -13 -79 -7 -46 4 -99 10 -117 13 l-34 6 7 46 c9
69 15 82 37 90 33 12 69 1 80 -25z m98 -188 c0 -8 -11 -17 -25 -20 -22 -6 -25
-11 -25 -56 0 -45 3 -50 25 -56 14 -3 25 -13 25 -21 0 -16 5 -17 -130 31 -127
45 -126 57 5 101 116 38 125 40 125 21z m-113 -201 c15 -11 23 -28 25 -58 l3
-42 43 3 c33 3 42 0 42 -12 0 -13 -15 -16 -87 -16 -49 0 -98 -3 -110 -6 -22
-6 -23 -4 -23 56 0 48 4 66 18 76 23 18 63 17 89 -1z m123 -330 l0 -75 -110 0
-110 0 -2 45 c-1 25 -2 55 -2 67 -1 12 4 23 11 25 8 3 13 -13 15 -49 3 -52 4
-53 36 -56 l32 -3 0 50 c0 39 4 51 15 51 11 0 15 -12 15 -51 l0 -50 38 3 37 3
1 50 c1 61 1 65 14 65 6 0 10 -32 10 -75z m8 -157 c-3 -8 -26 -14 -56 -16
l-52 -3 0 -44 0 -44 53 -3 c96 -6 56 -23 -60 -26 -96 -2 -113 0 -113 13 0 11
11 15 45 15 l45 0 0 45 0 45 -45 0 c-33 0 -45 4 -45 15 0 12 20 15 116 15 88
0 115 -3 112 -12z m-206 -200 l3 -33 65 -2 c95 -4 130 -12 130 -29 0 -10 -7
-13 -22 -10 -13 3 -58 7 -100 11 l-77 6 -3 -27 c-5 -48 -28 -41 -28 9 0 89 25
147 32 75z m31 -252 c29 -8 71 -20 95 -26 54 -14 57 -35 3 -26 -22 3 -46 8
-54 12 -10 4 -17 -7 -25 -37 -6 -24 -9 -46 -6 -50 2 -4 22 -10 44 -14 38 -6
58 -20 46 -32 -5 -5 -61 7 -178 38 -21 5 -38 16 -38 23 0 11 9 11 45 3 25 -6
47 -8 50 -6 2 3 7 23 11 46 6 40 6 41 -32 49 -38 10 -59 34 -29 34 9 0 40 -7
68 -14z m-108 -173 c-19 -46 -17 -47 75 -87 62 -27 88 -42 81 -49 -7 -7 -38 1
-98 27 -48 21 -89 34 -90 29 -8 -22 -32 -47 -39 -41 -11 12 46 138 63 138 11
0 13 -5 8 -17z m2 -205 c48 -29 90 -53 92 -55 3 -2 0 -8 -5 -13 -10 -10 -185
88 -192 108 -7 21 14 13 105 -40z m-47 -79 c55 -68 70 -93 61 -102 -8 -8 -30
-2 -87 26 -42 21 -79 36 -81 33 -3 -3 18 -34 46 -70 52 -67 58 -80 41 -91 -10
-6 -210 95 -210 108 0 16 35 5 98 -30 75 -42 77 -35 11 52 -34 46 -39 58 -29
70 11 13 22 10 86 -26 41 -22 74 -35 74 -29 0 7 -22 38 -49 69 -26 31 -46 62
-44 69 3 6 6 12 8 12 2 0 36 -41 75 -91z"/>
<path d="M7176 5597 c-9 -7 -19 -29 -23 -50 l-6 -38 39 3 c37 3 39 5 42 40 4
43 -23 66 -52 45z"/>
<path d="M7200 5361 l-54 -17 45 -17 c63 -24 69 -22 69 18 0 19 -1 35 -2 34
-2 -1 -28 -9 -58 -18z"/>
<path d="M7150 5179 c-6 -11 -10 -30 -8 -42 2 -18 9 -22 43 -22 38 0 40 1 37
30 -2 16 -8 35 -14 42 -16 20 -46 15 -58 -8z"/>
<path d="M2470 6198 c1 -108 42 -570 71 -808 32 -262 103 -717 113 -728 3 -2
9 -1 15 3 7 4 11 53 11 128 0 67 7 218 14 335 21 309 3 500 -70 742 -41 136
-125 340 -140 340 -8 0 -14 -6 -14 -12z m89 -202 c46 -121 95 -311 110 -429
14 -101 13 -345 -3 -562 l-12 -170 -11 60 c-51 259 -158 1244 -132 1217 4 -4
26 -56 48 -116z"/>
<path d="M7706 6126 c-137 -320 -192 -627 -168 -938 7 -84 15 -232 18 -328 3
-96 8 -181 10 -189 10 -31 23 8 43 124 65 378 96 623 130 1015 25 284 29 392
15 397 -6 2 -28 -34 -48 -81z m15 -179 c-26 -340 -84 -820 -131 -1082 -7 -38
-8 -38 -9 -8 0 18 -8 133 -17 255 -18 261 -10 420 32 608 33 144 124 415 132
390 2 -6 -1 -79 -7 -163z"/>
<path d="M3457 3513 c-14 -13 -6 -35 21 -59 94 -85 458 -289 467 -262 5 15 25
243 25 283 0 22 -3 24 -19 15 -29 -15 -112 -12 -251 10 -126 20 -231 26 -243
13z"/>
<path d="M6525 3498 c-71 -12 -137 -17 -185 -15 l-75 5 12 -132 c6 -72 12
-139 12 -148 1 -10 8 -18 16 -18 28 0 230 107 336 178 119 80 152 112 143 135
-8 23 -113 21 -259 -5z"/>
<path d="M3382 3363 c-22 -49 -84 -178 -137 -287 -53 -110 -94 -204 -92 -210
6 -15 219 -135 332 -186 360 -167 771 -279 1220 -332 147 -17 684 -17 825 0
523 64 965 194 1350 396 75 39 191 107 208 121 3 3 -49 116 -171 368 l-106
218 -78 -59 c-245 -185 -589 -330 -953 -401 -250 -49 -331 -55 -660 -55 -332
-1 -469 12 -706 64 -362 79 -720 235 -930 407 -30 23 -55 43 -57 43 -2 0 -22
-39 -45 -87z m2950 -426 c13 -20 9 -61 -8 -85 -15 -21 -14 -22 14 -22 46 0 67
-22 67 -70 0 -34 -5 -46 -25 -59 -36 -24 -173 -72 -181 -64 -14 16 -98 268
-91 275 4 3 43 17 87 31 81 25 118 24 137 -6z m-2288 9 c59 -25 103 -106 57
-106 -12 0 -23 11 -30 30 -11 34 -67 64 -98 53 -50 -17 -83 -77 -83 -148 0
-35 5 -48 26 -64 31 -25 71 -27 101 -6 21 15 53 11 53 -6 0 -5 -15 -18 -32
-30 -58 -36 -138 -12 -178 54 -26 42 -25 81 5 144 38 83 102 111 179 79z m240
-76 c25 -9 26 -12 27 -102 2 -157 8 -160 68 -35 l52 109 37 -7 c20 -4 38 -8
39 -9 4 -4 -54 -276 -60 -282 -3 -3 -12 -4 -20 -2 -12 2 -11 20 9 113 27 130
27 125 14 125 -5 0 -35 -49 -65 -110 -77 -153 -105 -145 -105 30 0 161 -19
162 -50 0 -13 -66 -26 -120 -29 -120 -3 0 -12 4 -20 9 -11 7 -9 31 13 137 15
71 29 135 31 142 5 15 25 15 59 2z m1682 -10 c15 -6 33 -18 40 -28 11 -14 9
-18 -8 -25 -14 -5 -27 -2 -38 8 -50 45 -150 -7 -150 -79 0 -88 57 -155 121
-142 53 10 80 36 77 70 -3 29 -5 31 -40 28 -28 -3 -38 0 -38 11 0 18 102 41
112 24 3 -5 9 -31 13 -56 6 -42 5 -47 -22 -68 -40 -32 -88 -46 -140 -40 -77 8
-123 69 -123 161 0 48 4 60 31 91 43 48 108 66 165 45z m-1335 -163 c-4 -138
5 -157 70 -157 50 0 66 24 74 110 13 143 15 150 37 150 19 0 20 -4 13 -92 -13
-173 -31 -204 -121 -202 -99 3 -129 42 -119 158 12 141 15 157 33 154 15 -3
17 -17 13 -121z m1029 107 c0 -3 -19 -29 -42 -56 -48 -58 -50 -49 38 -160 l53
-66 -26 -7 c-30 -7 -24 -12 -87 78 l-48 69 -29 -34 c-26 -28 -29 -39 -26 -80
4 -44 2 -48 -18 -48 -20 0 -23 6 -29 78 -3 42 -9 107 -12 143 -6 60 -5 67 14
71 16 5 21 -1 26 -31 3 -20 6 -53 6 -73 0 -21 3 -38 8 -38 4 0 34 36 67 80 44
59 66 80 82 80 13 0 23 -3 23 -6z"/>
<path d="M6230 2923 c-8 -3 -30 -11 -47 -19 l-32 -13 15 -38 c9 -21 18 -40 19
-42 2 -1 27 5 54 14 62 20 79 46 56 81 -15 23 -34 28 -65 17z"/>
<path d="M6243 2793 c-47 -16 -48 -18 -31 -75 11 -37 14 -39 42 -34 60 12 101
39 104 69 7 56 -33 70 -115 40z"/>
<path d="M3864 7551 c-65 -40 -72 -143 -13 -193 79 -66 199 -10 199 92 0 95
-103 151 -186 101z m115 -15 c48 -25 63 -83 36 -136 -46 -89 -185 -54 -185 47
1 79 78 125 149 89z"/>
<path d="M3898 7489 c-21 -12 -24 -59 -6 -77 19 -19 66 -15 78 7 29 54 -20
101 -72 70z"/>
<path d="M3054 6980 c-36 -14 -74 -68 -74 -106 0 -77 47 -124 123 -124 42 0
54 5 83 34 28 28 34 42 34 76 0 93 -83 154 -166 120z m96 -27 c87 -51 52 -183
-49 -183 -55 0 -90 32 -98 87 -5 39 -2 46 30 78 39 39 73 45 117 18z"/>
<path d="M3067 6902 c-34 -37 -15 -82 33 -82 32 0 50 17 50 46 0 48 -52 70
-83 36z"/>
<path d="M6242 7550 c-37 -23 -52 -54 -52 -112 0 -32 7 -47 34 -74 28 -28 42
-34 75 -34 56 0 95 22 115 64 20 42 20 69 1 110 -30 63 -110 84 -173 46z m134
-34 c38 -38 43 -70 19 -117 -45 -86 -185 -51 -185 46 0 46 13 71 48 89 45 25
80 20 118 -18z"/>
<path d="M6278 7489 c-21 -12 -24 -59 -6 -77 17 -17 54 -15 72 4 44 44 -12
105 -66 73z"/>
<path d="M7073 6970 c-41 -25 -53 -48 -53 -105 0 -40 5 -52 34 -81 28 -28 42
-34 75 -34 57 0 100 24 117 65 19 46 18 74 -6 112 -37 61 -108 79 -167 43z
m125 -25 c36 -30 47 -66 32 -110 -14 -42 -48 -65 -99 -65 -95 0 -128 139 -43
184 40 22 77 19 110 -9z"/>
<path d="M7108 6909 c-21 -12 -24 -59 -6 -77 7 -7 25 -12 40 -12 40 0 58 39
34 75 -17 26 -39 31 -68 14z"/>
<path d="M4880 7136 c-206 -420 -236 -476 -259 -481 -22 -4 -259 -39 -861
-125 -80 -11 -150 -22 -157 -25 -7 -2 85 -100 205 -217 119 -117 290 -285 380
-373 l163 -161 -35 -204 c-19 -113 -49 -286 -66 -385 -63 -363 -76 -450 -70
-453 4 -1 162 79 351 179 189 99 399 210 466 245 l122 64 73 -39 c398 -213
861 -452 865 -447 6 6 1 40 -92 581 -31 176 -60 352 -67 390 l-11 71 214 209
c443 434 543 534 539 538 -3 3 -117 21 -255 41 -137 19 -360 51 -495 71 -135
19 -258 38 -273 41 -24 5 -35 21 -76 107 -85 178 -412 832 -420 840 -4 4 -112
-206 -241 -467z m430 -617 c52 -11 115 -22 140 -23 25 -2 64 -11 88 -22 34
-15 42 -24 42 -45 0 -34 -21 -42 -71 -27 -30 8 -38 15 -34 27 7 18 8 21 6 39
0 6 -5 12 -10 12 -5 0 -7 -9 -4 -20 3 -12 0 -20 -6 -20 -7 0 -9 -4 -6 -10 13
-21 -14 -9 -32 14 -21 27 -112 55 -211 63 -163 14 -334 -51 -422 -160 -76 -94
-95 -149 -95 -282 0 -106 1 -112 35 -179 44 -87 58 -96 97 -68 38 27 204 121
268 152 59 29 145 88 145 101 0 5 -15 9 -34 9 -32 0 -66 20 -66 40 0 27 148
41 172 16 8 -7 34 -17 59 -21 77 -13 131 -55 97 -77 -8 -4 10 -8 42 -8 98 0
163 -29 127 -55 -15 -10 -11 -15 28 -31 25 -10 45 -21 45 -25 0 -14 -33 -19
-46 -8 -8 7 -29 9 -49 6 -41 -7 -56 10 -29 31 19 14 18 14 -1 8 -88 -26 -231
-34 -266 -16 -10 6 -19 21 -19 33 -1 22 -1 21 -23 -4 -12 -15 -27 -28 -33 -30
-15 -6 -74 -76 -118 -141 -21 -31 -45 -59 -52 -62 -17 -7 -54 28 -54 50 0 19
58 79 67 70 4 -4 -5 -18 -20 -32 -15 -14 -27 -34 -27 -46 0 -20 1 -20 19 -4
15 13 20 14 23 4 3 -9 9 -5 17 10 7 14 8 22 1 22 -16 0 -12 17 6 24 8 3 12 2
9 -4 -18 -30 10 -1 59 59 60 75 63 82 42 100 -17 15 -99 -20 -134 -58 -16 -17
-26 -22 -29 -14 -4 10 -12 9 -35 -3 -23 -12 -28 -18 -17 -24 11 -7 10 -10 -5
-16 -10 -4 -22 -16 -26 -28 l-9 -21 -7 22 -6 23 -40 -24 c-22 -13 -48 -38 -59
-55 -14 -23 -25 -31 -38 -26 -13 4 -28 -7 -56 -42 l-39 -48 36 34 c30 27 39
31 55 22 12 -7 13 -10 4 -11 -8 0 -48 -33 -90 -72 -42 -40 -105 -89 -139 -108
-47 -27 -60 -39 -56 -52 3 -10 1 -18 -4 -18 -16 0 -34 29 -26 42 4 7 -2 4 -14
-6 -16 -13 -22 -30 -21 -55 1 -20 3 -28 6 -18 5 19 28 23 38 7 3 -5 1 -10 -4
-10 -17 0 -13 -22 9 -50 26 -34 25 -48 -2 -24 -25 22 -16 1 16 -35 14 -16 16
-22 6 -19 -25 8 -79 86 -86 125 -12 63 3 83 114 152 71 44 120 84 159 127 l55
64 -35 47 c-47 65 -66 115 -77 200 -17 130 37 282 134 379 127 127 305 169
516 123z m-262 -660 c-21 -17 -38 -40 -38 -50 0 -21 -16 -26 -23 -6 -7 20 4
37 42 62 50 35 63 30 19 -6z m-50 -131 c-3 -7 -17 -15 -33 -18 -36 -6 -43 -25
-14 -40 18 -10 24 -9 31 4 5 9 20 16 32 16 13 0 26 7 30 15 8 21 25 19 19 -3
-4 -15 7 -20 71 -31 59 -9 89 -21 135 -52 32 -22 62 -46 65 -55 4 -12 16 -13
55 -8 43 5 54 3 83 -18 18 -14 56 -38 83 -53 28 -16 61 -38 73 -49 30 -27 63
-91 57 -109 -8 -18 -152 -100 -165 -92 -5 3 25 24 68 47 42 22 79 42 81 44 2
2 -4 22 -14 44 -19 41 -48 68 -126 112 -42 25 -48 26 -73 12 -16 -8 -37 -14
-47 -14 -11 0 -19 -4 -19 -10 0 -5 -20 -9 -45 -8 -40 2 -44 4 -39 24 5 19 2
22 -15 17 -12 -3 -21 -13 -22 -22 0 -11 -2 -12 -6 -3 -3 7 3 22 12 32 17 19
14 51 -7 77 -15 19 -114 53 -179 62 -54 7 -60 6 -81 -17 -30 -31 -70 -52 -102
-52 -14 0 -28 -4 -31 -10 -4 -6 1 -7 12 -3 10 4 -16 -27 -58 -68 -42 -40 -94
-100 -117 -131 -50 -69 -59 -75 -80 -55 -14 15 -7 25 73 112 58 63 93 94 103
90 10 -3 12 0 9 10 -4 9 9 27 37 50 45 36 62 43 68 24 2 -6 11 -2 22 9 17 20
17 21 -11 38 -49 32 -53 44 -23 74 23 23 95 29 88 8z m-134 -37 c3 -5 -4 -11
-17 -15 -12 -3 -52 -32 -90 -65 -37 -34 -95 -79 -128 -102 -47 -31 -60 -45
-56 -60 3 -12 0 -19 -9 -19 -8 0 -14 9 -14 19 0 13 26 40 73 74 39 31 103 83
141 116 67 59 89 71 100 52z m42 -53 c5 -8 2 -9 -10 -5 -12 5 -34 -11 -79 -56
-34 -35 -92 -87 -129 -116 -53 -41 -68 -59 -68 -79 -1 -26 -1 -26 -15 -8 -8
11 -15 23 -15 27 0 4 28 29 63 57 34 27 97 81 141 120 78 72 98 83 112 60z
m504 -292 c52 -53 91 -96 87 -96 -11 0 -217 193 -217 203 0 17 39 -16 130
-107z m87 30 c33 -19 43 -21 47 -10 6 16 36 19 36 4 0 -6 -11 -15 -24 -20 -19
-7 -23 -14 -19 -32 4 -19 2 -18 -15 8 -11 17 -34 36 -51 44 -17 7 -31 16 -31
21 0 14 12 11 57 -15z m-921 -3 c7 -10 14 -24 14 -32 0 -8 -9 -2 -20 12 -11
14 -20 28 -20 31 0 12 13 6 26 -11z m14 -63 c0 -5 -4 -10 -9 -10 -6 0 -13 5
-16 10 -3 6 1 10 9 10 9 0 16 -4 16 -10z m25 -20 c11 9 15 9 15 1 0 -6 -7 -14
-15 -17 -20 -8 -65 4 -65 16 0 6 10 5 25 -2 19 -8 28 -8 40 2z"/>
<path d="M5498 6446 c-6 -31 -2 -36 33 -36 51 0 46 38 -7 54 -17 5 -22 2 -26
-18z"/>
<path d="M5220 6020 l-25 -6 29 -8 c30 -7 46 -1 30 13 -5 4 -20 5 -34 1z"/>
<path d="M4630 5604 c-71 -47 -87 -63 -32 -33 42 24 102 68 92 69 -3 0 -30
-16 -60 -36z"/>
<path d="M5378 5533 c7 -3 16 -2 19 1 4 3 -2 6 -13 5 -11 0 -14 -3 -6 -6z"/>
<path d="M5335 5520 c-3 -5 -2 -10 4 -10 5 0 13 5 16 10 3 6 2 10 -4 10 -5 0
-13 -4 -16 -10z"/>
<path d="M4681 5375 c-17 -20 -31 -39 -31 -42 0 -10 50 39 61 60 15 27 4 20
-30 -18z"/>
<path d="M5330 4595 c0 -10 7 -15 18 -13 21 4 19 22 -2 26 -10 2 -16 -3 -16
-13z"/>
<path d="M3803 2285 c-39 -17 -63 -61 -63 -116 0 -33 6 -47 34 -75 33 -33 51
-39 106 -34 61 4 106 66 97 132 -6 46 -29 75 -74 94 -40 17 -59 17 -100 -1z
m124 -37 c31 -29 39 -78 19 -116 -20 -39 -44 -52 -94 -52 -102 0 -127 150 -32
189 34 14 79 5 107 -21z"/>
<path d="M3828 2219 c-22 -12 -24 -62 -4 -78 26 -22 70 -9 81 23 8 24 6 31
-14 47 -26 21 -38 23 -63 8z"/>
<path d="M6334 2291 c-72 -31 -97 -132 -48 -190 74 -88 214 -35 214 81 0 76
-95 139 -166 109z m120 -52 c24 -27 27 -38 23 -73 -8 -54 -44 -86 -98 -86
-103 0 -137 138 -45 185 42 21 85 12 120 -26z"/>
<path d="M6346 2214 c-19 -18 -21 -55 -4 -72 7 -7 24 -12 38 -12 49 0 68 51
32 83 -23 21 -46 22 -66 1z"/>
</g>
</svg>
